<svg width="32" height="32" viewBox="0 0 32 32" fill="none" xmlns="http://www.w3.org/2000/svg">
<path d="M8 2.6665L4 7.99984V26.6665C4 27.3737 4.28095 28.052 4.78105 28.5521C5.28115 29.0522 5.95942 29.3332 6.66667 29.3332H25.3333C26.0406 29.3332 26.7189 29.0522 27.219 28.5521C27.719 28.052 28 27.3737 28 26.6665V7.99984L24 2.6665H8Z" stroke="#334155" stroke-width="3" stroke-linecap="round" stroke-linejoin="round"/>
<path d="M4 8H28" stroke="#334155" stroke-width="3" stroke-linecap="round" stroke-linejoin="round"/>
<path d="M21.3333 13.333C21.3333 14.7475 20.7714 16.1041 19.7712 17.1042C18.771 18.1044 17.4145 18.6663 16 18.6663C14.5855 18.6663 13.2289 18.1044 12.2288 17.1042C11.2286 16.1041 10.6667 14.7475 10.6667 13.333" stroke="#334155" stroke-width="3" stroke-linecap="round" stroke-linejoin="round"/>
</svg>
