<svg width="18" height="19" viewBox="0 0 18 19" fill="none" xmlns="http://www.w3.org/2000/svg">
<path d="M9.45259 0.958496C10.4168 0.961067 10.9062 0.96621 11.3288 0.978209L11.4951 0.984209C11.687 0.991066 11.8765 0.999637 12.1053 1.00992C13.0173 1.05278 13.6395 1.19677 14.1855 1.40847C14.7512 1.62618 15.2277 1.92102 15.7043 2.39671C16.1401 2.82517 16.4773 3.34345 16.6925 3.91549C16.9042 4.46146 17.0482 5.08372 17.0911 5.99653C17.1013 6.22452 17.1099 6.41394 17.1168 6.60678L17.1219 6.77306C17.1348 7.19475 17.1399 7.68416 17.1416 8.64839L17.1425 9.28779V10.4106C17.1446 11.0358 17.138 11.6609 17.1228 12.2859L17.1176 12.4522C17.1108 12.6451 17.1022 12.8345 17.0919 13.0625C17.0491 13.9753 16.9034 14.5967 16.6925 15.1435C16.478 15.7158 16.1406 16.2343 15.7043 16.6623C15.2757 17.098 14.7574 17.4352 14.1855 17.6505C13.6395 17.8622 13.0173 18.0062 12.1053 18.0491C11.9019 18.0586 11.6985 18.0672 11.4951 18.0748L11.3288 18.0799C10.9062 18.0919 10.4168 18.0979 9.45259 18.0996L8.81319 18.1005H7.69125C7.06579 18.1026 6.44033 18.0961 5.81506 18.0808L5.64878 18.0756C5.44531 18.0679 5.24189 18.0591 5.03853 18.0491C4.12657 18.0062 3.50432 17.8622 2.95749 17.6505C2.38552 17.4357 1.86744 17.0984 1.43956 16.6623C1.00334 16.234 0.665796 15.7157 0.450472 15.1435C0.238768 14.5975 0.0947755 13.9753 0.0519205 13.0625C0.0423714 12.8591 0.0338003 12.6557 0.0262075 12.4522L0.0219221 12.2859C0.00612753 11.6609 -0.00101574 11.0358 0.000494547 10.4106V8.64839C-0.00189759 8.02323 0.00438848 7.39806 0.0193508 6.77306L0.0253505 6.60678C0.0322073 6.41394 0.0407782 6.22452 0.0510634 5.99653C0.0939184 5.08372 0.237911 4.46232 0.449615 3.91549C0.664844 3.34287 1.00306 2.82442 1.44042 2.39671C1.86819 1.96085 2.38593 1.62359 2.95749 1.40847C3.50432 1.19677 4.12572 1.05278 5.03853 1.00992C5.26651 0.999637 5.45679 0.991066 5.64878 0.984209L5.81506 0.979066C6.44005 0.963838 7.06522 0.957266 7.69039 0.959353L9.45259 0.958496ZM8.57149 5.24399C7.43491 5.24399 6.34487 5.6955 5.54119 6.49919C4.7375 7.30288 4.28599 8.39291 4.28599 9.52949C4.28599 10.6661 4.7375 11.7561 5.54119 12.5598C6.34487 13.3635 7.43491 13.815 8.57149 13.815C9.70808 13.815 10.7981 13.3635 11.6018 12.5598C12.4055 11.7561 12.857 10.6661 12.857 9.52949C12.857 8.39291 12.4055 7.30288 11.6018 6.49919C10.7981 5.6955 9.70808 5.24399 8.57149 5.24399ZM8.57149 6.95819C8.90916 6.95814 9.24353 7.02459 9.55552 7.15376C9.8675 7.28293 10.151 7.47228 10.3898 7.71101C10.6286 7.94973 10.8181 8.23316 10.9473 8.5451C11.0766 8.85705 11.1432 9.1914 11.1432 9.52907C11.1433 9.86673 11.0768 10.2011 10.9477 10.5131C10.8185 10.8251 10.6291 11.1086 10.3904 11.3474C10.1517 11.5862 9.86825 11.7756 9.55631 11.9049C9.24437 12.0342 8.91002 12.1007 8.57235 12.1008C7.8904 12.1008 7.23638 11.8299 6.75417 11.3477C6.27195 10.8655 6.00105 10.2114 6.00105 9.52949C6.00105 8.84754 6.27195 8.19352 6.75417 7.71131C7.23638 7.2291 7.8904 6.95819 8.57235 6.95819M13.0721 3.95835C12.788 3.95835 12.5155 4.07122 12.3145 4.27214C12.1136 4.47307 12.0007 4.74557 12.0007 5.02972C12.0007 5.31387 12.1136 5.58637 12.3145 5.7873C12.5155 5.98822 12.788 6.10109 13.0721 6.10109C13.3563 6.10109 13.6288 5.98822 13.8297 5.7873C14.0306 5.58637 14.1435 5.31387 14.1435 5.02972C14.1435 4.74557 14.0306 4.47307 13.8297 4.27214C13.6288 4.07122 13.3563 3.95835 13.0721 3.95835Z" fill="black"/>
</svg>
