<svg width="18" height="19" viewBox="0 0 18 19" fill="none" xmlns="http://www.w3.org/2000/svg">
<g clip-path="url(#clip0_222_7752)">
<path d="M0 2.18635C0 1.50814 0.563572 0.958496 1.25893 0.958496H15.8839C16.5793 0.958496 17.1429 1.50814 17.1429 2.18635V16.8735C17.1429 17.5517 16.5793 18.1014 15.8839 18.1014H1.25893C0.563572 18.1014 0 17.5517 0 16.8735V2.18635ZM5.29608 15.3092V7.56814H2.72357V15.3092H5.29608ZM4.01036 6.51064C4.90715 6.51064 5.46536 5.91707 5.46536 5.1735C5.44929 4.41386 4.90822 3.83636 4.0275 3.83636C3.14679 3.83636 2.57143 4.41493 2.57143 5.1735C2.57143 5.91707 3.12965 6.51064 3.99322 6.51064H4.01036ZM9.26894 15.3092V10.986C9.26894 10.7546 9.28608 10.5231 9.35465 10.3581C9.54001 9.89636 9.96322 9.41743 10.6747 9.41743C11.6057 9.41743 11.9775 10.1267 11.9775 11.1681V15.3092H14.55V10.8692C14.55 8.49065 13.2814 7.38493 11.5886 7.38493C10.2236 7.38493 9.61179 8.13493 9.26894 8.66315V8.68993H9.25179L9.26894 8.66315V7.56814H6.69751C6.72965 8.29457 6.69751 15.3092 6.69751 15.3092H9.26894Z" fill="black"/>
</g>
<defs>
<clipPath id="clip0_222_7752">
<rect width="17.1429" height="17.1429" fill="white" transform="translate(0 0.958496)"/>
</clipPath>
</defs>
</svg>
