<svg width="142" height="49" viewBox="0 0 142 49" fill="none" xmlns="http://www.w3.org/2000/svg">
<path d="M10.0466 35.5215C8.30846 35.5215 6.76728 35.1506 5.4231 34.409C4.07891 33.6442 3.02442 32.5781 2.25962 31.2108C1.518 29.8434 1.14719 28.2559 1.14719 26.4482V24.6405H4.24114V26.2744C4.24114 27.5027 4.48448 28.5919 4.97117 29.5421C5.45786 30.4692 6.12995 31.1876 6.98745 31.6975C7.86812 32.2073 8.87626 32.4623 10.0119 32.4623C11.7037 32.4623 13.0479 31.9061 14.0444 30.7936C15.0642 29.658 15.574 28.1516 15.574 26.2744V10.6656H18.7027V26.4482C18.7027 28.2559 18.3435 29.8434 17.6251 31.2108C16.9298 32.5781 15.9217 33.6442 14.6006 34.409C13.3028 35.1506 11.7848 35.5215 10.0466 35.5215Z" fill="#0F172A"/>
<path d="M15.9289 40.917V19.607H6.50797V16.5826H28.4437V19.607H19.0576V40.917H15.9289Z" fill="#0F172A"/>
<path d="M34.7717 31.2506C33.8301 31.2506 32.9918 31.0611 32.2569 30.6821C31.5334 30.2917 30.9707 29.7462 30.5688 29.0457C30.1669 28.3338 29.9659 27.5185 29.9659 26.5998V25.3768H32.6703V26.4275C32.6703 26.8409 32.7564 27.2141 32.9286 27.5472C33.1009 27.8802 33.342 28.1386 33.6521 28.3223C33.9621 28.4945 34.3181 28.5807 34.7201 28.5807C35.3172 28.5807 35.7938 28.3855 36.1497 27.995C36.5172 27.5931 36.7009 27.0706 36.7009 26.4275V18.9346H39.457V26.5998C39.457 27.5185 39.2617 28.3338 38.8713 29.0457C38.4924 29.7462 37.9469 30.2917 37.2349 30.6821C36.5344 31.0611 35.7134 31.2506 34.7717 31.2506ZM45.9608 31.1644C45.0651 31.1644 44.2555 30.9692 43.532 30.5788C42.8201 30.1883 42.2574 29.6544 41.844 28.9768C41.4421 28.2878 41.2411 27.5242 41.2411 26.6859C41.2411 25.8361 41.4421 25.0725 41.844 24.395C42.2574 23.7174 42.8201 23.1835 43.532 22.793C44.2555 22.4026 45.0651 22.2074 45.9608 22.2074C46.845 22.2074 47.6431 22.4026 48.3551 22.793C49.0785 23.1835 49.647 23.7232 50.0604 24.4122C50.4738 25.0897 50.6805 25.8476 50.6805 26.6859C50.6805 27.5242 50.4738 28.2878 50.0604 28.9768C49.647 29.6544 49.0785 30.1883 48.3551 30.5788C47.6431 30.9692 46.845 31.1644 45.9608 31.1644ZM45.9608 28.9424C46.3742 28.9424 46.7531 28.8448 47.0977 28.6496C47.4422 28.4544 47.712 28.1845 47.9072 27.84C48.1139 27.4955 48.2173 27.1108 48.2173 26.6859C48.2173 26.261 48.1139 25.8763 47.9072 25.5318C47.712 25.1873 47.4422 24.9175 47.0977 24.7222C46.7531 24.5155 46.3742 24.4122 45.9608 24.4122C45.5359 24.4122 45.1512 24.5155 44.8067 24.7222C44.4622 24.9175 44.1866 25.1873 43.9799 25.5318C43.7847 25.8763 43.6871 26.261 43.6871 26.6859C43.6871 27.1108 43.7847 27.4955 43.9799 27.84C44.1866 28.1845 44.4622 28.4544 44.8067 28.6496C45.1512 28.8448 45.5359 28.9424 45.9608 28.9424ZM52.7311 30.9922V18.7623H55.1254V25.3596C55.2861 24.4064 55.6421 23.6428 56.1933 23.0686C56.756 22.4945 57.4393 22.2074 58.2431 22.2074C58.8862 22.2074 59.4489 22.3681 59.9312 22.6897C60.4135 23.0112 60.7867 23.4706 61.0508 24.0677C61.3149 24.6533 61.447 25.3366 61.447 26.1175V30.9922H59.0355V26.4964C59.024 25.8763 58.8402 25.3768 58.4843 24.9978C58.1283 24.6189 57.6632 24.4294 57.089 24.4294C56.7216 24.4294 56.3885 24.5213 56.09 24.705C55.7914 24.8888 55.556 25.1356 55.3837 25.4457C55.2115 25.7557 55.1254 26.106 55.1254 26.4964V30.9922H52.7311ZM64.1023 30.9922V22.3796H66.4966V25.3596C66.6574 24.4064 67.0134 23.6428 67.5646 23.0686C68.1273 22.4945 68.8105 22.2074 69.6144 22.2074C70.2575 22.2074 70.8201 22.3681 71.3024 22.6897C71.7847 23.0112 72.158 23.4706 72.4221 24.0677C72.6862 24.6533 72.8183 25.3366 72.8183 26.1175V30.9922H70.4067V26.4964C70.3953 25.8763 70.2115 25.3768 69.8555 24.9978C69.4995 24.6189 69.0345 24.4294 68.4603 24.4294C68.0928 24.4294 67.7598 24.5213 67.4612 24.705C67.1627 24.8888 66.9273 25.1356 66.755 25.4457C66.5828 25.7557 66.4966 26.106 66.4966 26.4964V30.9922H64.1023ZM83.1732 30.9922V21.5873H78.8325V18.9346H90.2528V21.5873H85.9293V30.9922H83.1732ZM94.166 31.1644C93.5229 31.1644 92.9602 31.0037 92.4779 30.6821C91.9956 30.3606 91.6224 29.907 91.3583 29.3214C91.0942 28.7242 90.9621 28.0352 90.9621 27.2543V22.3796H93.3736L93.3908 26.8582C93.3908 27.4897 93.5688 27.995 93.9248 28.374C94.2808 28.7529 94.7459 28.9424 95.3201 28.9424C95.6875 28.9424 96.0205 28.8505 96.3191 28.6668C96.6177 28.4831 96.8531 28.2362 97.0253 27.9261C97.1976 27.6161 97.2837 27.2601 97.2837 26.8582V22.3796H99.678V30.9922H97.2837V28.0122C97.123 28.9654 96.7612 29.729 96.1985 30.3032C95.6473 30.8774 94.9698 31.1644 94.166 31.1644ZM102.506 30.9922V22.3796H104.9V25.3251C105.049 24.4524 105.376 23.7174 105.882 23.1203C106.399 22.5117 107.065 22.2074 107.88 22.2074C108.466 22.2074 108.948 22.3337 109.327 22.5863C109.717 22.839 109.999 23.2064 110.171 23.6887C110.355 24.171 110.446 24.7682 110.446 25.4801V26.307H108.052V25.9625C108.052 25.4801 107.926 25.1127 107.673 24.86C107.432 24.5959 107.099 24.4639 106.674 24.4639C106.33 24.4639 106.025 24.5557 105.761 24.7395C105.497 24.9117 105.285 25.1586 105.124 25.4801C104.975 25.8017 104.9 26.1519 104.9 26.5309V30.9922H102.506ZM111.791 30.9922V22.3796H114.185V25.3596C114.346 24.4064 114.702 23.6428 115.253 23.0686C115.816 22.4945 116.499 22.2074 117.303 22.2074C117.946 22.2074 118.509 22.3681 118.991 22.6897C119.473 23.0112 119.847 23.4706 120.111 24.0677C120.375 24.6533 120.507 25.3366 120.507 26.1175V30.9922H118.095V26.4964C118.084 25.8763 117.9 25.3768 117.544 24.9978C117.188 24.6189 116.723 24.4294 116.149 24.4294C115.782 24.4294 115.449 24.5213 115.15 24.705C114.851 24.8888 114.616 25.1356 114.444 25.4457C114.271 25.7557 114.185 26.106 114.185 26.4964V30.9922H111.791ZM127.055 31.1644C126.182 31.1644 125.39 30.975 124.678 30.596C123.978 30.2171 123.421 29.6946 123.007 29.0285C122.605 28.3625 122.404 27.6046 122.404 26.7548C122.404 25.8706 122.611 25.084 123.025 24.395C123.438 23.706 124.001 23.172 124.713 22.793C125.425 22.4026 126.211 22.2074 127.072 22.2074C127.934 22.2074 128.709 22.4026 129.398 22.793C130.098 23.172 130.649 23.706 131.051 24.395C131.453 25.0725 131.654 25.8361 131.654 26.6859C131.654 26.7089 131.654 26.7376 131.654 26.772C131.654 26.8065 131.654 26.8352 131.654 26.8582H124.764C124.787 27.2716 124.902 27.6448 125.109 27.9778C125.327 28.2993 125.603 28.5577 125.936 28.7529C126.28 28.9367 126.659 29.0285 127.072 29.0285C127.474 29.0285 127.836 28.9481 128.158 28.7874C128.479 28.6266 128.703 28.4142 128.829 28.15H131.396C131.338 28.6323 131.12 29.1089 130.741 29.5797C130.374 30.0391 129.869 30.418 129.226 30.7166C128.594 31.0152 127.871 31.1644 127.055 31.1644ZM129.398 26.5137C129.375 26.1003 129.26 25.7328 129.053 25.4112C128.847 25.0782 128.571 24.8199 128.226 24.6361C127.893 24.4409 127.515 24.3433 127.09 24.3433C126.676 24.3433 126.297 24.4409 125.953 24.6361C125.62 24.8199 125.344 25.0782 125.126 25.4112C124.919 25.7328 124.804 26.1003 124.781 26.5137H129.398ZM133.642 30.9922V22.3796H136.036V25.3251C136.186 24.4524 136.513 23.7174 137.018 23.1203C137.535 22.5117 138.201 22.2074 139.016 22.2074C139.602 22.2074 140.084 22.3337 140.463 22.5863C140.854 22.839 141.135 23.2064 141.307 23.6887C141.491 24.171 141.583 24.7682 141.583 25.4801V26.307H139.189V25.9625C139.189 25.4801 139.062 25.1127 138.81 24.86C138.568 24.5959 138.235 24.4639 137.811 24.4639C137.466 24.4639 137.162 24.5557 136.898 24.7395C136.633 24.9117 136.421 25.1586 136.26 25.4801C136.111 25.8017 136.036 26.1519 136.036 26.5309V30.9922H133.642Z" fill="#0F172A"/>
</svg>
