<svg width="116" height="20" viewBox="0 0 116 20" fill="none" xmlns="http://www.w3.org/2000/svg">
<path d="M10 1.6665L12.575 6.88317L18.3334 7.72484L14.1667 11.7832L15.15 17.5165L10 14.8082L4.85002 17.5165L5.83335 11.7832L1.66669 7.72484L7.42502 6.88317L10 1.6665Z" fill="#FFD700"/>
<path d="M34 1.6665L36.575 6.88317L42.3334 7.72484L38.1667 11.7832L39.15 17.5165L34 14.8082L28.85 17.5165L29.8334 11.7832L25.6667 7.72484L31.425 6.88317L34 1.6665Z" fill="#FFD700"/>
<path d="M58 1.6665L60.575 6.88317L66.3334 7.72484L62.1667 11.7832L63.15 17.5165L58 14.8082L52.85 17.5165L53.8334 11.7832L49.6667 7.72484L55.425 6.88317L58 1.6665Z" fill="#FFD700"/>
<path d="M82 1.6665L84.575 6.88317L90.3334 7.72484L86.1667 11.7832L87.15 17.5165L82 14.8082L76.85 17.5165L77.8334 11.7832L73.6667 7.72484L79.425 6.88317L82 1.6665Z" fill="#FFD700"/>
<path d="M106 1.6665L108.575 6.88317L114.333 7.72484L110.167 11.7832L111.15 17.5165L106 14.8082L100.85 17.5165L101.833 11.7832L97.6667 7.72484L103.425 6.88317L106 1.6665Z" fill="#FFD700"/>
</svg>
